# xmcd
#
# Track frame offsets:
#  182
#  12597
#  24865
#  37742
#  48185
#  60365
#  77140
#  88012
#  102252
#  123485
#
# Disc length: 1801 seconds
#
# Revision: 9
# Processed by: cddbd v1.5.1PL2 Copyright (c) Steve Scherf et al.
# Submitted via: Collectorz.com_Music_Collector 6.9
#
DISCID=6c07070a
DTITLE=Johnny Winter - About Blues
DYEAR=1969
DGENRE=Blues
TTITLE0=Parchman Farm
TTITLE1=Livin' In The Blues
TTITLE2=Leavin' Blues
TTITLE3=38, 32, 20
TTITLE4=Bad News
TTITLE5=Kind Hearted Woman
TTITLE6=Out Of Sight
TTITLE7=Low Down Gal Of Mine
TTITLE8=Going Down Slow
TTITLE9=Avocado Green
EXTD=
EXTT0=
EXTT1=
EXTT2=
EXTT3=
EXTT4=
EXTT5=
EXTT6=
EXTT7=
EXTT8=
EXTT9=
PLAYORDER=
